<?xml version="1.0" encoding="UTF-8"?>
<svg width="24px" height="24px" viewBox="0 0 24 24" version="1.1" xmlns="http://www.w3.org/2000/svg" xmlns:xlink="http://www.w3.org/1999/xlink">
    <!-- Generator: Sketch 51.2 (57519) - http://www.bohemiancoding.com/sketch -->
    <title>Icon/Metrics/air</title>
    <desc>Created with Sketch.</desc>
    <defs></defs>
    <g id="Icon/Metrics/air" stroke="none" stroke-width="1" fill="none" fill-rule="evenodd">
        <g id="co2" transform="translate(0.000000, 2.000000)" fill-rule="nonzero">
            <path d="M21.1069219,3.33103125 C20.8575469,2.14429688 19.8024844,1.25057813 18.5427187,1.25057813 C18.2089219,1.25057813 17.8846406,1.31282813 17.5812187,1.43348438 C16.6708125,0.517921875 15.4467187,0.003984375 14.1364687,0.003984375 C12.0712031,0.003984375 10.2585,1.2943125 9.562125,3.19954688 C7.61315625,3.57196875 6.15360937,5.28951563 6.15360937,7.32051563 C6.15360937,9.63628125 8.0375625,11.5202344 10.3535156,11.5202344 L19.8000937,11.5202344 C22.1160469,11.5202344 24,9.63628125 24,7.32051563 C24,5.48179688 22.8132656,3.88621875 21.1069219,3.33103125 Z" id="Shape" fill="#455A64"></path>
            <path d="M21.1069219,3.33103125 C20.8575469,2.14429688 19.8024844,1.25057813 18.5427187,1.25057813 C18.2089219,1.25057813 17.8846406,1.31282813 17.5812187,1.43348438 C16.6708125,0.517921875 15.4467188,0.003984375 14.1364688,0.003984375 C13.6514062,0.003984375 13.1812031,0.077625 12.7351875,0.211265625 C13.4992969,0.441421875 14.1961875,0.857625 14.7687656,1.43348438 C15.0721875,1.31282813 15.3964688,1.25057813 15.7302656,1.25057813 C16.9900312,1.25057813 18.0450469,2.14434375 18.2944687,3.33103125 C20.0008125,3.88617188 21.1875,5.48175 21.1875,7.32051563 C21.1875,9.63628125 19.3035469,11.5202344 16.9875938,11.5202344 L19.8000938,11.5202344 C22.1160469,11.5202344 24,9.63628125 24,7.32051563 C24,5.48179688 22.8132656,3.88621875 21.1069219,3.33103125 Z" id="Shape" fill="#37474F"></path>
            <path d="M19.3791094,8.66840625 C18.5031094,6.07289062 16.0718906,4.30265625 13.2943594,4.30265625 C11.5028906,4.30265625 9.83310937,5.03198437 8.62021875,6.32451563 C8.18714062,6.12309375 7.71604687,6.01875 7.22934375,6.01875 C5.57465625,6.01875 4.19821875,7.23417188 3.94645313,8.81915625 C1.62759375,9.49692187 0,11.6270156 0,14.0910469 C0,17.122875 2.46660937,19.5897187 5.49848438,19.5897187 L18.5015156,19.5897187 C21.5333438,19.5897187 24,17.1229219 24,14.0910469 C24,11.3775937 22.0096406,9.0913125 19.3791094,8.66840625 Z" id="Shape" fill="#AFBDC4"></path>
            <path d="M19.3791094,8.66840625 C18.5031094,6.07289062 16.0718906,4.30265625 13.2943594,4.30265625 C12.7508906,4.30265625 12.2212031,4.3775625 11.709375,4.50717188 C13.78725,5.0405625 15.4895156,6.5881875 16.1916094,8.66840625 C18.8221406,9.09135938 20.8125,11.3775937 20.8125,14.0910938 C20.8125,17.1229219 18.3458906,19.5897656 15.3140156,19.5897656 L18.5015156,19.5897656 C21.5333438,19.5897188 24,17.1229687 24,14.0910938 C24,11.3775937 22.0096406,9.0913125 19.3791094,8.66840625 Z" id="Shape" fill="#8FA3AD"></path>
            <g id="Group" transform="translate(7.218750, 9.984375)" fill="#37474F">
                <path d="M1.96378125,6.29634375 C0.892078125,6.29634375 0.020296875,5.42451562 0.020296875,4.35295312 L0.020296875,1.94475 C0.020296875,0.873140625 0.892078125,0.00140625 1.96378125,0.00140625 C3.03534375,0.00140625 3.90707812,0.8731875 3.90707812,1.94475 C3.90707812,2.25539062 3.6553125,2.50725 3.34457812,2.50725 C3.03384375,2.50725 2.78207812,2.25539062 2.78207812,1.94475 C2.78207812,1.49353125 2.41495312,1.12640625 1.96378125,1.12640625 C1.51242188,1.12640625 1.14529687,1.49353125 1.14529687,1.94475 L1.14529687,4.35295312 C1.14529687,4.80421875 1.51242187,5.17134375 1.96378125,5.17134375 C2.41495312,5.17134375 2.78207812,4.80421875 2.78207812,4.35295312 C2.78207812,4.0423125 3.03384375,3.79045312 3.34457812,3.79045312 C3.6553125,3.79045312 3.90707812,4.0423125 3.90707812,4.35295312 C3.907125,5.42451562 3.03534375,6.29634375 1.96378125,6.29634375 Z" id="Shape"></path>
                <path d="M6.19335938,6.29634375 C5.12179687,6.29634375 4.2500625,5.42451562 4.2500625,4.35295312 L4.2500625,1.94475 C4.2500625,0.873140625 5.12184375,0.00140625 6.19335938,0.00140625 C7.2650625,0.00140625 8.13684375,0.8731875 8.13684375,1.94475 L8.13684375,4.35295312 C8.13684375,5.42451562 7.2650625,6.29634375 6.19335938,6.29634375 Z M6.19335938,1.12640625 C5.7421875,1.12640625 5.3750625,1.49353125 5.3750625,1.94475 L5.3750625,4.35295312 C5.3750625,4.80421875 5.7421875,5.17134375 6.19335938,5.17134375 C6.64471875,5.17134375 7.01184375,4.80421875 7.01184375,4.35295312 L7.01184375,1.94475 C7.01184375,1.49353125 6.64471875,1.12640625 6.19335938,1.12640625 Z" id="Shape"></path>
                <path d="M10.3328438,6.10884375 L8.92509375,6.10884375 C8.76248438,6.10884375 8.61857813,6.00403125 8.56860938,5.84939062 C8.51845313,5.69479687 8.57371875,5.52534375 8.70539063,5.43 C9.18970313,5.07923437 9.95784375,4.32717187 9.95784375,3.80226562 C9.95784375,3.62090625 9.81028125,3.47334375 9.62901563,3.47334375 C9.44775,3.47334375 9.3001875,3.62090625 9.3001875,3.80226562 C9.3001875,4.00935937 9.13228125,4.17726562 8.9251875,4.17726562 C8.71809375,4.17726562 8.5501875,4.00935937 8.5501875,3.80226562 C8.5501875,3.207375 9.034125,2.72339062 9.62901563,2.72339062 C10.2239063,2.72339062 10.7078906,3.207375 10.7078906,3.80226562 C10.7078906,4.37535937 10.3099688,4.93935937 9.91378125,5.35884375 L10.3329375,5.35884375 C10.5400313,5.35884375 10.7079375,5.52675 10.7079375,5.73384375 C10.7078438,5.94089062 10.5399375,6.10884375 10.3328438,6.10884375 Z" id="Shape"></path>
            </g>
        </g>
    </g>
</svg>