<?xml version="1.0" encoding="UTF-8"?>
<svg width="16px" height="16px" viewBox="0 0 16 16" version="1.1" xmlns="http://www.w3.org/2000/svg" xmlns:xlink="http://www.w3.org/1999/xlink">
    <!-- Generator: Sketch 53.1 (72631) - https://sketchapp.com -->
    <title>Icon/Trelloicon/Large/White</title>
    <desc>Created with Sketch.</desc>
    <g id="Symbols" stroke="none" stroke-width="1" fill="none" fill-rule="evenodd">
        <g id="Global-Nav/Elements" transform="translate(-1342.000000, -12.000000)" fill="#FFFFFF">
            <g id="metrics" transform="translate(1335.000000, 5.000000)">
                <g id="title" transform="translate(3.000000, 3.000000)">
                    <g id="Icon/Phone/White">
                        <g id="phone-call" transform="translate(4.000000, 4.000000)">
                            <path d="M12.639865,9.90737553 C12.3124388,9.56644726 11.9175021,9.38416878 11.4989367,9.38416878 C11.0837468,9.38416878 10.6854346,9.56307173 10.3445063,9.904 L9.27783966,10.9672911 C9.19007595,10.9200338 9.10231224,10.8761519 9.01792405,10.83227 C8.89640506,10.7715105 8.78163713,10.7141266 8.68374684,10.6533671 C7.68459072,10.0187679 6.77657384,9.19176371 5.90568776,8.12172152 C5.48374684,7.58838819 5.20020253,7.13944304 4.99429536,6.68374684 C5.27108861,6.43058228 5.52762869,6.16729114 5.77741772,5.91412658 C5.87193249,5.81961181 5.96644726,5.72172152 6.06096203,5.62720675 C6.76982278,4.91834599 6.76982278,4.00020253 6.06096203,3.29134177 L5.13944304,2.36982278 C5.03480169,2.26518143 4.92678481,2.15716456 4.82551899,2.04914768 C4.62298734,1.83986498 4.41032911,1.62383122 4.19091983,1.42129958 C3.86349367,1.09724895 3.47193249,0.925097046 3.06011814,0.925097046 C2.6483038,0.925097046 2.24999156,1.09724895 1.91243882,1.42129958 C1.90906329,1.42467511 1.90906329,1.42467511 1.90568776,1.42805063 L0.758008439,2.58585654 C0.325940928,3.01792405 0.0795274262,3.54450633 0.0255189873,4.15547679 C-0.0554936709,5.1411308 0.234801688,6.05927426 0.457586498,6.66011814 C1.00442194,8.13522363 1.82129958,9.50231224 3.03986498,10.9672911 C4.51834599,12.732692 6.29724895,14.1267848 8.32931646,15.1090633 C9.10568776,15.4769958 10.1419747,15.9124388 11.2997806,15.9867004 C11.3706667,15.9900759 11.4449283,15.9934515 11.5124388,15.9934515 C12.2921857,15.9934515 12.947038,15.7132827 13.4601181,15.1563207 C13.4634937,15.1495696 13.4702447,15.1461941 13.4736203,15.139443 C13.6491477,14.9267848 13.8516793,14.7343797 14.0643376,14.5284726 C14.2094852,14.3900759 14.3580084,14.2449283 14.5031561,14.0930295 C14.8373333,13.7453502 15.0128608,13.3402869 15.0128608,12.925097 C15.0128608,12.5065316 14.8339578,12.1048439 14.4930295,11.7672911 L12.639865,9.90737553 Z M13.8483038,13.4618059 C13.8449283,13.4618059 13.8449283,13.4651814 13.8483038,13.4618059 C13.7166582,13.6035781 13.5816371,13.7318481 13.4364895,13.8736203 C13.2170802,14.082903 12.9942954,14.3023122 12.7850127,14.5487257 C12.4440844,14.9132827 12.0423966,15.0854346 11.5158143,15.0854346 C11.4651814,15.0854346 11.411173,15.0854346 11.3605401,15.0820591 C10.3580084,15.0179241 9.42636287,14.6263629 8.72762869,14.2921857 C6.81708017,13.3672911 5.13944304,12.054211 3.74535021,10.3900759 C2.59429536,9.00273418 1.82467511,7.72003376 1.31497046,6.34281857 C1.00104641,5.50231224 0.886278481,4.84745992 0.936911392,4.2297384 C0.970666667,3.83480169 1.1225654,3.50737553 1.40273418,3.22720675 L2.55378903,2.0761519 C2.71918987,1.92087764 2.8947173,1.83648945 3.0668692,1.83648945 C3.27952743,1.83648945 3.45167932,1.96475949 3.5596962,2.07277637 C3.56307173,2.0761519 3.56644726,2.07952743 3.56982278,2.08290295 C3.77572996,2.27530802 3.97151055,2.47446414 4.17741772,2.68712236 C4.28205907,2.79513924 4.39007595,2.90315612 4.49809283,3.01454852 L5.41961181,3.93606751 C5.77741772,4.29387342 5.77741772,4.62467511 5.41961181,4.98248101 C5.32172152,5.08037131 5.22720675,5.1782616 5.12931646,5.27277637 C4.84577215,5.56307173 4.57572996,5.83311392 4.28205907,6.09640506 C4.27530802,6.10315612 4.26855696,6.10653165 4.26518143,6.1132827 C3.97488608,6.40357806 4.02889451,6.68712236 4.08965401,6.87952743 C4.09302954,6.88965401 4.09640506,6.89978059 4.09978059,6.90990717 C4.33944304,7.49049789 4.67699578,8.03733333 5.19007595,8.68881013 L5.19345148,8.69218565 C6.12509705,9.83986498 7.10737553,10.7343797 8.19091983,11.4196118 C8.32931646,11.5073755 8.47108861,11.5782616 8.6061097,11.6457722 C8.72762869,11.7065316 8.84239662,11.7639156 8.94028692,11.8246751 C8.95378903,11.8314262 8.96729114,11.8415527 8.98079325,11.8483038 C9.09556118,11.9056878 9.20357806,11.932692 9.31497046,11.932692 C9.59513924,11.932692 9.77066667,11.7571646 9.82805063,11.6997806 L10.982481,10.5453502 C11.0972489,10.4305823 11.2795274,10.2921857 11.4921857,10.2921857 C11.7014684,10.2921857 11.8736203,10.4238312 11.9782616,10.5385992 C11.9816371,10.5419747 11.9816371,10.5419747 11.9850127,10.5453502 L13.8449283,12.4052658 C14.1926076,12.7495696 14.1926076,13.104 13.8483038,13.4618059 Z" id="Shape" fill-rule="nonzero"></path>
                            <path d="M8.64324051,3.80442194 C9.52762869,3.95294515 10.3310042,4.37151055 10.9723544,5.01286076 C11.6137046,5.65421097 12.0288945,6.4575865 12.1807932,7.34197468 C12.2179241,7.56475949 12.4103291,7.72003376 12.6297384,7.72003376 C12.6567426,7.72003376 12.6803713,7.71665823 12.7073755,7.7132827 C12.9571646,7.67277637 13.1225654,7.43648945 13.0820591,7.18670042 C12.8997806,6.11665823 12.3934515,5.1411308 11.6204557,4.36813502 C10.8474599,3.59513924 9.87193249,3.08881013 8.8018903,2.90653165 C8.55210127,2.86602532 8.31918987,3.03142616 8.27530802,3.27783966 C8.23142616,3.52425316 8.39345148,3.76391561 8.64324051,3.80442194 Z" id="Shape" fill-rule="nonzero"></path>
                            <path d="M15.9748861,7.05505485 C15.6744641,5.29302954 14.8440844,3.68965401 13.568135,2.41370464 C12.2921857,1.13775527 10.6888101,0.307375527 8.92678481,0.0069535865 C8.68037131,-0.03692827 8.44745992,0.131848101 8.40357806,0.378261603 C8.36307173,0.628050633 8.52847257,0.860962025 8.7782616,0.904843882 C10.3512574,1.17151055 11.7858565,1.91750211 12.9267848,3.05505485 C14.0677131,4.19598312 14.8103291,5.63058228 15.0769958,7.20357806 C15.1141266,7.42636287 15.3065316,7.58163713 15.5259409,7.58163713 C15.5529451,7.58163713 15.5765738,7.5782616 15.6035781,7.57488608 C15.8499916,7.53775527 16.0187679,7.30146835 15.9748861,7.05505485 Z" id="Shape" fill-rule="nonzero"></path>
                        </g>
                    </g>
                </g>
            </g>
        </g>
    </g>
</svg>