<?xml version="1.0" encoding="UTF-8"?>
<svg width="60px" height="14px" viewBox="0 0 60 14" version="1.1" xmlns="http://www.w3.org/2000/svg" xmlns:xlink="http://www.w3.org/1999/xlink">
    <!-- Generator: Sketch 51.2 (57519) - http://www.bohemiancoding.com/sketch -->
    <title>CITYSIGHT</title>
    <desc>Created with Sketch.</desc>
    <defs></defs>
    <g id="Symbols" stroke="none" stroke-width="1" fill="none" fill-rule="evenodd">
        <g id="Global-Nav/Elements" transform="translate(-690.000000, -13.000000)" fill="#FFFFFF">
            <g id="citysight-wordmark" transform="translate(690.000000, 13.000000)">
                <path d="M4.95833333,8.73055556 L6.98055556,8.73055556 L6.98055556,10.5388889 C6.98055556,12.7166667 5.89166667,13.9611111 3.79166667,13.9611111 C1.69166667,13.9611111 0.602777778,12.7166667 0.602777778,10.5388889 L0.602777778,3.46111111 C0.602777778,1.28333333 1.69166667,0.0388888889 3.79166667,0.0388888889 C5.89166667,0.0388888889 6.98055556,1.28333333 6.98055556,3.46111111 L6.98055556,4.78333333 L4.95833333,4.78333333 L4.95833333,3.325 C4.95833333,2.35277778 4.53055556,1.98333333 3.85,1.98333333 C3.16944444,1.98333333 2.74166667,2.35277778 2.74166667,3.325 L2.74166667,10.675 C2.74166667,11.6472222 3.16944444,11.9972222 3.85,11.9972222 C4.53055556,11.9972222 4.95833333,11.6472222 4.95833333,10.675 L4.95833333,8.73055556 Z M8.28333333,13.8055556 L8.28333333,0.194444444 L10.4222222,0.194444444 L10.4222222,13.8055556 L8.28333333,13.8055556 Z M11.3555556,2.13888889 L11.3555556,0.194444444 L17.9666667,0.194444444 L17.9666667,2.13888889 L15.7305556,2.13888889 L15.7305556,13.8055556 L13.5916667,13.8055556 L13.5916667,2.13888889 L11.3555556,2.13888889 Z M20.9027778,13.8055556 L20.9027778,9.29444444 L18.2,0.194444444 L20.4361111,0.194444444 L22.0694444,6.39722222 L23.7027778,0.194444444 L25.7444444,0.194444444 L23.0416667,9.29444444 L23.0416667,13.8055556 L20.9027778,13.8055556 Z M26.1916667,3.46111111 C26.1916667,1.28333333 27.2611111,0.0388888889 29.3416667,0.0388888889 C31.4222222,0.0388888889 32.4916667,1.28333333 32.4916667,3.46111111 L32.4916667,3.88888889 L30.4694444,3.88888889 L30.4694444,3.325 C30.4694444,2.35277778 30.0805556,1.98333333 29.4,1.98333333 C28.7194444,1.98333333 28.3305556,2.35277778 28.3305556,3.325 C28.3305556,6.125 32.5111111,6.65 32.5111111,10.5388889 C32.5111111,12.7166667 31.4222222,13.9611111 29.3222222,13.9611111 C27.2222222,13.9611111 26.1333333,12.7166667 26.1333333,10.5388889 L26.1333333,9.70277778 L28.1555556,9.70277778 L28.1555556,10.675 C28.1555556,11.6472222 28.5833333,11.9972222 29.2638889,11.9972222 C29.9444444,11.9972222 30.3722222,11.6472222 30.3722222,10.675 C30.3722222,7.875 26.1916667,7.35 26.1916667,3.46111111 Z M33.7361111,13.8055556 L33.7361111,0.194444444 L35.875,0.194444444 L35.875,13.8055556 L33.7361111,13.8055556 Z M40.6388889,8.16666667 L40.6388889,6.22222222 L43.6333333,6.22222222 L43.6333333,10.5388889 C43.6333333,12.7166667 42.5444444,13.9611111 40.4444444,13.9611111 C38.3444444,13.9611111 37.2555556,12.7166667 37.2555556,10.5388889 L37.2555556,3.46111111 C37.2555556,1.28333333 38.3444444,0.0388888889 40.4444444,0.0388888889 C42.5444444,0.0388888889 43.6333333,1.28333333 43.6333333,3.46111111 L43.6333333,4.78333333 L41.6111111,4.78333333 L41.6111111,3.325 C41.6111111,2.35277778 41.1833333,1.98333333 40.5027778,1.98333333 C39.8222222,1.98333333 39.3944444,2.35277778 39.3944444,3.325 L39.3944444,10.675 C39.3944444,11.6472222 39.8222222,11.9972222 40.5027778,11.9972222 C41.1833333,11.9972222 41.6111111,11.6472222 41.6111111,10.675 L41.6111111,8.16666667 L40.6388889,8.16666667 Z M47.1527778,7.97222222 L47.1527778,13.8055556 L45.0138889,13.8055556 L45.0138889,0.194444444 L47.1527778,0.194444444 L47.1527778,6.02777778 L49.5833333,6.02777778 L49.5833333,0.194444444 L51.7611111,0.194444444 L51.7611111,13.8055556 L49.5833333,13.8055556 L49.5833333,7.97222222 L47.1527778,7.97222222 Z M52.6944444,2.13888889 L52.6944444,0.194444444 L59.3055556,0.194444444 L59.3055556,2.13888889 L57.0694444,2.13888889 L57.0694444,13.8055556 L54.9305556,13.8055556 L54.9305556,2.13888889 L52.6944444,2.13888889 Z" id="CITYSIGHT"></path>
            </g>
        </g>
    </g>
</svg>