<?xml version="1.0" encoding="UTF-8"?>
<svg width="24px" height="24px" viewBox="0 0 24 24" version="1.1" xmlns="http://www.w3.org/2000/svg" xmlns:xlink="http://www.w3.org/1999/xlink">
    <!-- Generator: Sketch 51.2 (57519) - http://www.bohemiancoding.com/sketch -->
    <title>Icon/Metrics/green</title>
    <desc>Created with Sketch.</desc>
    <defs></defs>
    <g id="Icon/Metrics/green" stroke="none" stroke-width="1" fill="none" fill-rule="evenodd">
        <g id="trees" fill-rule="nonzero">
            <path d="M12.9653671,10.9930633 C12.9660253,9.91458228 12.4295696,8.90658228 11.5346835,8.30465823 C12.5120506,7.08288608 12.3139241,5.30010127 11.0921519,4.32268354 C10.5891139,3.92025316 9.96394937,3.70131646 9.31979747,3.70192405 C9.27929114,3.70192405 9.23878481,3.70637975 9.19827848,3.708 C9.65179747,2.20916456 8.80440506,0.62643038 7.30556962,0.172860759 C5.80673418,-0.280708861 4.224,0.566734177 3.77043038,2.06556962 C3.60840506,2.60106329 3.60840506,3.1724557 3.77043038,3.70794937 C3.72992405,3.70794937 3.68941772,3.70187342 3.64891139,3.70187342 C2.0843038,3.70040506 0.814734177,4.96759494 0.813265823,6.53225316 C0.812658228,7.1764557 1.03164557,7.80156962 1.43402532,8.30460759 C-0.0507341772,9.3038481 -0.44435443,11.3174684 0.554886076,12.8022785 C0.788455696,13.1493165 1.08698734,13.4478987 1.43402532,13.6814177 C0.456658228,14.9031899 0.65478481,16.6859747 1.87655696,17.6633924 C2.37959494,18.0658228 3.00475949,18.2847595 3.64891139,18.2841519 L9.31979747,18.2841519 C10.8844051,18.2856203 12.1539747,17.0184304 12.155443,15.4537722 C12.1560506,14.8095696 11.9370633,14.1844557 11.5346835,13.6814177 C12.4295696,13.0795443 12.9659747,12.0715443 12.9653671,10.9930633 Z" id="Shape" fill="#6A9923"></path>
            <path d="M9.60982278,9.08926582 C9.45387342,8.92886076 9.19746835,8.92526582 9.03706329,9.08116456 L6.88941772,11.1583291 L6.88941772,5.32217722 C6.88941772,5.09848101 6.70805063,4.91711392 6.48435443,4.91711392 C6.26065823,4.91711392 6.07929114,5.09848101 6.07929114,5.32217722 L6.07929114,8.1924557 L4.23908861,6.35225316 C4.07817722,6.19686076 3.82172152,6.20131646 3.66632911,6.36222785 C3.51473418,6.51918987 3.51473418,6.76805063 3.66632911,6.92501266 L6.07929114,9.33797468 L6.07929114,14.876 L4.34035443,13.1370633 C4.17944304,12.9816203 3.92303797,12.9860759 3.76759494,13.1469873 C3.61594937,13.3039494 3.61594937,13.5528608 3.76759494,13.7098228 L6.07929114,16.021519 L6.07929114,23.5500253 C6.07929114,23.7737215 6.26065823,23.9550886 6.48435443,23.9550886 C6.70805063,23.9550886 6.88941772,23.7737215 6.88941772,23.5500253 L6.88941772,12.2852152 L9.60334177,9.66324051 C9.76364557,9.50718987 9.76703797,9.25073418 9.61098734,9.09043038 C9.61058228,9.09007595 9.61017722,9.08967089 9.60982278,9.08926582 Z" id="Shape" fill="#618C20"></path>
            <path d="M23.4970127,10.9930633 C23.4976709,9.91458228 22.9612152,8.90658228 22.0663291,8.30465823 C23.0436962,7.08288608 22.8456203,5.30010127 21.6237975,4.32268354 C21.1207595,3.92025316 20.4955949,3.70131646 19.851443,3.70192405 C19.8109367,3.70192405 19.7704304,3.70637975 19.7299241,3.708 C20.183443,2.20916456 19.3360506,0.62643038 17.8372152,0.172860759 C16.3383797,-0.280658228 14.7556456,0.566734177 14.3020759,2.06556962 C14.1400506,2.60106329 14.1400506,3.1724557 14.3020759,3.70794937 C14.2615696,3.70794937 14.2210633,3.70187342 14.180557,3.70187342 C12.6159494,3.70040506 11.3463797,4.96759494 11.3449114,6.53225316 C11.3443038,7.1764557 11.5632911,7.80156962 11.9656709,8.30460759 C10.4809114,9.3038481 10.0872911,11.3174684 11.0865316,12.8022785 C11.3201013,13.1493165 11.6186329,13.4478987 11.9656709,13.6814177 C10.9883038,14.9031899 11.1864304,16.6859747 12.4082025,17.6633924 C12.9112405,18.0658228 13.5364051,18.2847595 14.180557,18.2841519 L19.851443,18.2841519 C21.4160506,18.2856203 22.6856203,17.0184304 22.6870886,15.4537722 C22.6876962,14.8095696 22.4687089,14.1844557 22.0663291,13.6814177 C22.9612152,13.0795443 23.4976203,12.0715443 23.4970127,10.9930633 Z" id="Shape" fill="#6A9923"></path>
            <path d="M20.1378228,9.08643038 C19.9796456,8.9283038 19.7232405,8.9283038 19.5650633,9.08643038 L17.4210633,11.2304304 L17.4210633,5.32217722 C17.4210633,5.09848101 17.2396962,4.91711392 17.016,4.91711392 C16.7923038,4.91711392 16.6109367,5.09848101 16.6109367,5.32217722 L16.6109367,8.1924557 L14.7707342,6.35225316 C14.6098228,6.19681013 14.3534177,6.20126582 14.1979747,6.36217722 C14.0463797,6.51913924 14.0463797,6.768 14.1979747,6.92501266 L16.6109367,9.33797468 L16.6109367,14.876 L14.872,13.1370633 C14.7110886,12.9816203 14.4546835,12.9860759 14.2992405,13.1469873 C14.1475949,13.3039494 14.1475949,13.5528608 14.2992405,13.7098228 L16.6109367,16.021519 L16.6109367,23.5500253 C16.6109367,23.7737215 16.7923038,23.9550886 17.016,23.9550886 C17.2396962,23.9550886 17.4210633,23.7737215 17.4210633,23.5500253 L17.4210633,12.348 C17.4512911,12.3330633 17.4794937,12.3142785 17.5049114,12.2921013 L20.1378228,9.65918987 C20.2959494,9.50101266 20.2959494,9.24460759 20.1378228,9.08643038 Z" id="Shape" fill="#618C20"></path>
            <path d="M18.2311899,10.9930633 C18.2318481,9.91458228 17.6953924,8.90658228 16.8005063,8.30465823 C17.7778734,7.08288608 17.5797975,5.30010127 16.3579747,4.32268354 C15.8549367,3.92025316 15.2297722,3.70131646 14.5856203,3.70192405 C14.5451139,3.70192405 14.5046076,3.70637975 14.4641013,3.708 C14.9176203,2.20916456 14.0702278,0.62643038 12.5713418,0.172860759 C11.0725063,-0.280658228 9.48977215,0.566734177 9.03625316,2.06556962 C8.87422785,2.60106329 8.87422785,3.1724557 9.03625316,3.70794937 C8.99574684,3.70794937 8.95524051,3.70187342 8.91473418,3.70187342 C7.35012658,3.70040506 6.08055696,4.96759494 6.07908861,6.53225316 C6.07848101,7.1764557 6.29746835,7.80156962 6.6998481,8.30460759 C5.21508861,9.3038481 4.82146835,11.3174684 5.82070886,12.8022785 C6.05427848,13.1493165 6.35281013,13.4478987 6.6998481,13.6814177 C5.72248101,14.9031899 5.92060759,16.6859747 7.14237975,17.6633924 C7.64541772,18.0658228 8.27058228,18.2847595 8.91473418,18.2841519 L14.5856203,18.2841519 C16.1502278,18.2856203 17.4197975,17.0184304 17.4212658,15.4537722 C17.4218734,14.8095696 17.2028861,14.1844557 16.8005063,13.6814177 C17.6953924,13.0795443 18.2317975,12.0715443 18.2311899,10.9930633 Z" id="Shape" fill="#88B337"></path>
            <path d="M14.872,9.08643038 C14.7138228,8.9283038 14.4574177,8.9283038 14.2992405,9.08643038 L12.1552405,11.2304304 L12.1552405,5.32217722 C12.1552405,5.09848101 11.9738734,4.91711392 11.7501772,4.91711392 C11.526481,4.91711392 11.3451139,5.09848101 11.3451139,5.32217722 L11.3451139,8.1924557 L9.50491139,6.35225316 C9.344,6.19686076 9.0875443,6.20131646 8.9321519,6.36222785 C8.78055696,6.51918987 8.78055696,6.76805063 8.9321519,6.92501266 L11.3451139,9.33797468 L11.3451139,14.876 L9.60617722,13.1370633 C9.44526582,12.9816709 9.18881013,12.9860759 9.03341772,13.1469873 C8.88182278,13.3039494 8.88182278,13.5528101 9.03341772,13.7098228 L11.3451139,16.021519 L11.3451139,23.5500253 C11.3451139,23.7737215 11.526481,23.9550886 11.7501772,23.9550886 C11.9738734,23.9550886 12.1552405,23.7737215 12.1552405,23.5500253 L12.1552405,12.348 C12.1854684,12.3330633 12.2136709,12.3142785 12.2390886,12.2921013 L14.872,9.65918987 C15.0301266,9.50101266 15.0301266,9.24460759 14.872,9.08643038 Z" id="Shape" fill="#6A9923"></path>
            <path d="M18.6362532,23.9550886 L4.86410127,23.9550886 C4.64040506,23.9550886 4.45903797,23.7737215 4.45903797,23.5500253 C4.45903797,23.3263291 4.64040506,23.144962 4.86410127,23.144962 L18.6362532,23.144962 C18.8599494,23.144962 19.0413165,23.3263291 19.0413165,23.5500253 C19.0413165,23.7737215 18.8599494,23.9550886 18.6362532,23.9550886 Z" id="Shape" fill="#595959"></path>
        </g>
    </g>
</svg>