<?xml version="1.0" encoding="UTF-8"?>
<svg width="24px" height="24px" viewBox="0 0 24 24" version="1.1" xmlns="http://www.w3.org/2000/svg" xmlns:xlink="http://www.w3.org/1999/xlink">
    <!-- Generator: Sketch 53.1 (72631) - https://sketchapp.com -->
    <title>Icon/Information/Blue</title>
    <desc>Created with Sketch.</desc>
    <g id="Icon/Information/Blue" stroke="none" stroke-width="1" fill="none" fill-rule="evenodd">
        <g id="icon-information" transform="translate(4.000000, 4.000000)" fill="#172B4D" fill-rule="nonzero">
            <path d="M6.95118228,8.05689425 C7.06277436,7.51600087 7.59171834,7.16798341 8.13261173,7.27957549 C8.67350511,7.39116758 9.02152257,7.92011156 8.90993049,8.46100494 L8.30197468,11.4078024 C8.1903826,11.9486958 7.66143861,12.2967133 7.12054523,12.1851212 C6.57965185,12.0735291 6.23163438,11.5445851 6.34322647,11.0036917 L6.95118228,8.05689425 Z M8.55000019,6.5 C7.85964425,6.5 7.30000019,5.94035594 7.30000019,5.25 C7.30000019,4.55964406 7.85964425,4 8.55000019,4 C9.24035613,4 9.80000019,4.55964406 9.80000019,5.25 C9.80000019,5.94035594 9.24035613,6.5 8.55000019,6.5 Z" id="Combined-Shape"></path>
            <path d="M8,14 C11.3137085,14 14,11.3137085 14,8 C14,4.6862915 11.3137085,2 8,2 C4.6862915,2 2,4.6862915 2,8 C2,11.3137085 4.6862915,14 8,14 Z M8,16 C3.581722,16 0,12.418278 0,8 C0,3.581722 3.581722,0 8,0 C12.418278,0 16,3.581722 16,8 C16,12.418278 12.418278,16 8,16 Z" id="Oval"></path>
        </g>
    </g>
</svg>