<?xml version="1.0" encoding="UTF-8"?>
<svg width="16px" height="12px" viewBox="0 0 16 12" version="1.1" xmlns="http://www.w3.org/2000/svg" xmlns:xlink="http://www.w3.org/1999/xlink">
    <!-- Generator: Sketch 52.3 (67297) - http://www.bohemiancoding.com/sketch -->
    <title>list</title>
    <desc>Created with Sketch.</desc>
    <g id="Assets" stroke="none" stroke-width="1" fill="none" fill-rule="evenodd">
        <g id="Icons" transform="translate(-360.000000, -68.000000)" fill="#172B4D">
            <g id="list" transform="translate(360.000000, 68.000000)">
                <path d="M14.9833443,11.7752131 L4.43803279,11.7752131 C4.00340984,11.7752131 3.65114754,11.4229508 3.65114754,10.9883279 C3.65114754,10.5537049 4.00340984,10.2014426 4.43803279,10.2014426 L14.983082,10.2014426 C15.4177049,10.2014426 15.7699672,10.5537049 15.7699672,10.9883279 C15.7699672,11.4229508 15.4179672,11.7752131 14.9833443,11.7752131 Z" id="Path"></path>
                <path d="M14.9833443,6.83593443 L4.43803279,6.83593443 C4.00340984,6.83593443 3.65114754,6.48367213 3.65114754,6.04904918 C3.65114754,5.61442623 4.00340984,5.26216393 4.43803279,5.26216393 L14.983082,5.26216393 C15.4177049,5.26216393 15.7699672,5.61442623 15.7699672,6.04904918 C15.7702295,6.48367213 15.4179672,6.83593443 14.9833443,6.83593443 Z" id="Path"></path>
                <path d="M14.9833443,1.89665574 L4.43803279,1.89665574 C4.00340984,1.89665574 3.65114754,1.54439344 3.65114754,1.10977049 C3.65114754,0.675147541 4.00340984,0.322885246 4.43803279,0.322885246 L14.983082,0.322885246 C15.4177049,0.322885246 15.7699672,0.675147541 15.7699672,1.10977049 C15.7699672,1.54439344 15.4179672,1.89665574 14.9833443,1.89665574 Z" id="Path"></path>
                <circle id="Oval" cx="1.05678689" cy="1.17062295" r="1.05678689"></circle>
                <circle id="Oval" cx="1.05678689" cy="6.04904918" r="1.05678689"></circle>
                <circle id="Oval" cx="1.05678689" cy="10.9274754" r="1.05678689"></circle>
            </g>
        </g>
    </g>
</svg>