<?xml version="1.0" encoding="UTF-8"?>
<svg width="24px" height="24px" viewBox="0 0 24 24" version="1.1" xmlns="http://www.w3.org/2000/svg" xmlns:xlink="http://www.w3.org/1999/xlink">
    <!-- Generator: Sketch 51.2 (57519) - http://www.bohemiancoding.com/sketch -->
    <title>Icon/Metrics/park</title>
    <desc>Created with Sketch.</desc>
    <defs></defs>
    <g id="Icon/Metrics/park" stroke="none" stroke-width="1" fill="none" fill-rule="evenodd">
        <g id="swing" fill-rule="nonzero">
            <g id="Group" transform="translate(4.800000, 1.200000)" fill="#808080">
                <path d="M0.4,18 C0.1791,18 0,17.8209 0,17.6 L0,0.4 C0,0.1791 0.1791,0 0.4,0 C0.6209,0 0.8,0.1791 0.8,0.4 L0.8,17.6 C0.8,17.8209 0.6209,18 0.4,18 Z" id="Shape"></path>
                <path d="M5.2,18 C4.9791,18 4.8,17.8209 4.8,17.6 L4.8,0.4 C4.8,0.1791 4.9791,0 5.2,0 C5.4209,0 5.6,0.1791 5.6,0.4 L5.6,17.6 C5.6,17.8209 5.4209,18 5.2,18 Z" id="Shape"></path>
                <path d="M9.2,14 C8.9791,14 8.8,13.8209 8.8,13.6 L8.8,0.4 C8.8,0.1791 8.9791,0 9.2,0 C9.4209,0 9.6,0.1791 9.6,0.4 L9.6,13.6 C9.6,13.8209 9.4209,14 9.2,14 Z" id="Shape"></path>
                <path d="M14,14 C13.7791,14 13.6,13.8209 13.6,13.6 L13.6,0.4 C13.6,0.1791 13.7791,0 14,0 C14.2209,0 14.4,0.1791 14.4,0.4 L14.4,13.6 C14.4,13.8209 14.2209,14 14,14 Z" id="Shape"></path>
            </g>
            <path d="M23.6,22.8 L23.2,22.8 L23.2,2 C23.2,0.89545 22.30455,0 21.2,0 L2.8,0 C1.69545,0 0.8,0.89545 0.8,2 L0.8,22.8 L0.4,22.8 C0.1791,22.8 0,22.9791 0,23.2 C0,23.4209 0.1791,23.6 0.4,23.6 L2.8,23.6 C3.0209,23.6 3.2,23.4209 3.2,23.2 C3.2,22.9791 3.0209,22.8 2.8,22.8 L2.4,22.8 L2.4,2.4 C2.4,1.95815 2.75815,1.6 3.2,1.6 L20.8,1.6 C21.24185,1.6 21.6,1.95815 21.6,2.4 L21.6,22.8 L21.2,22.8 C20.9791,22.8 20.8,22.9791 20.8,23.2 C20.8,23.4209 20.9791,23.6 21.2,23.6 L23.6,23.6 C23.8209,23.6 24,23.4209 24,23.2 C24,22.9791 23.8209,22.8 23.6,22.8 Z" id="Shape" fill="#FF902A"></path>
            <polygon id="Shape" fill="#55D08F" points="4.4 18.8 10.8 18.8 10.8 20.4 4.4 20.4"></polygon>
            <polygon id="Shape" fill="#FF3D53" points="13.2 14.8 19.6 14.8 19.6 16.4 13.2 16.4"></polygon>
        </g>
    </g>
</svg>