<?xml version="1.0" encoding="UTF-8"?>
<svg width="16px" height="4px" viewBox="0 0 16 4" version="1.1" xmlns="http://www.w3.org/2000/svg" xmlns:xlink="http://www.w3.org/1999/xlink">
    <!-- Generator: Sketch 52.3 (67297) - http://www.bohemiancoding.com/sketch -->
    <title>setting-bl</title>
    <desc>Created with Sketch.</desc>
    <g id="Symbols" stroke="none" stroke-width="1" fill="none" fill-rule="evenodd" opacity="0.800000012">
        <g id="Icon/Actions/options/black" transform="translate(-4.000000, -10.000000)" fill="#172B4D" fill-rule="nonzero">
            <g id="setting-bl" transform="translate(4.000000, 10.000000)">
                <path d="M12,2 C12,0.9 12.9,-3.00038466e-16 14,-3.6739404e-16 C15.1,-4.34749614e-16 16,0.9 16,2 C16,3.1 15.1,4 14,4 C12.9,4 12,3.1 12,2 Z M10,2 C10,3.1 9.1,4 8,4 C6.9,4 6,3.1 6,2 C6,0.9 6.9,1.44050744e-16 8,7.66951701e-17 C9.1,9.33959615e-18 10,0.9 10,2 Z M4,2 C4,3.1 3.1,4 2,4 C0.9,4 0,3.1 0,2 C0,0.9 0.9,5.88139954e-16 2,5.2078438e-16 C3.1,4.53428806e-16 4,0.9 4,2 Z" id="Shape"></path>
            </g>
        </g>
    </g>
</svg>