<?xml version="1.0" encoding="UTF-8"?>
<svg width="24px" height="24px" viewBox="0 0 24 24" version="1.1" xmlns="http://www.w3.org/2000/svg" xmlns:xlink="http://www.w3.org/1999/xlink">
    <!-- Generator: Sketch 51.2 (57519) - http://www.bohemiancoding.com/sketch -->
    <title>Icon/Metrics/transport</title>
    <desc>Created with Sketch.</desc>
    <defs></defs>
    <g id="Icon/Metrics/transport" stroke="none" stroke-width="1" fill="none" fill-rule="evenodd">
        <g id="bus-stop" transform="translate(5.000000, 0.000000)" fill-rule="nonzero">
            <polyline id="Shape" fill="#4DBAF6" points="5.90625 23.53125 5.90625 16.40625 8.15625 16.40625 8.15625 23.53125"></polyline>
            <path d="M11.34375,0.46875 L2.71875,0.46875 C1.47609375,0.46875 0.46875,1.47609375 0.46875,2.71875 L0.46875,14.15625 C0.46875,15.3989062 1.47609375,16.40625 2.71875,16.40625 L11.34375,16.40625 C12.5864062,16.40625 13.59375,15.3989062 13.59375,14.15625 L13.59375,2.71875 C13.59375,1.47609375 12.5864062,0.46875 11.34375,0.46875 Z" id="Shape" fill="#FFC66C"></path>
            <g id="Group" transform="translate(2.718750, 3.000000)" fill="#FFFFFF">
                <path d="M7.6875,4.67460937 L8.625,4.67460937 L8.625,0.877125 C8.625,0.39271875 8.23228125,0 7.747875,0 L0.877125,0 C0.39271875,0 0,0.39271875 0,0.877125 L0,4.67465625 L0.921890625,4.67465625 L7.6875,4.67460937 Z" id="Shape"></path>
                <circle id="Oval" cx="1.85953125" cy="4.674375" r="1"></circle>
                <circle id="Oval" cx="6.75" cy="4.674375" r="1"></circle>
            </g>
            <path d="M5.90625,19.03125 C5.78296875,19.03125 5.66203125,19.0813594 5.57484375,19.1685937 C5.48765625,19.2558281 5.4375,19.3767188 5.4375,19.5 C5.4375,19.6232812 5.48760937,19.7442187 5.57484375,19.8313594 C5.66203125,19.9185469 5.78296875,19.96875 5.90625,19.96875 C6.02953125,19.96875 6.15046875,19.9185937 6.23760937,19.8313594 C6.32484375,19.7442187 6.375,19.6232812 6.375,19.5 C6.375,19.3767188 6.32484375,19.2557813 6.23760937,19.1685937 C6.15046875,19.0813594 6.02953125,19.03125 5.90625,19.03125 Z" id="Shape" fill="#000000"></path>
            <path d="M5.90625,20.859375 C5.64740625,20.859375 5.4375,21.0692812 5.4375,21.328125 L5.4375,23.53125 C5.4375,23.7900938 5.64740625,24 5.90625,24 C6.16509375,24 6.375,23.7900938 6.375,23.53125 L6.375,21.328125 C6.375,21.0692812 6.16509375,20.859375 5.90625,20.859375 Z" id="Shape" fill="#000000"></path>
            <path d="M11.34375,0 L2.71875,0 C1.21964063,0 0,1.21964062 0,2.71875 L0,14.15625 C0,15.6553594 1.21964063,16.875 2.71875,16.875 L5.4375,16.875 L5.4375,17.671875 C5.4375,17.9307188 5.64740625,18.140625 5.90625,18.140625 C6.16509375,18.140625 6.375,17.9307188 6.375,17.671875 L6.375,16.875 L7.6875,16.875 L7.6875,23.53125 C7.6875,23.7900938 7.89740625,24 8.15625,24 C8.41509375,24 8.625,23.7900938 8.625,23.53125 L8.625,16.875 L11.34375,16.875 C12.8428594,16.875 14.0625,15.6553594 14.0625,14.15625 L14.0625,10.21875 C14.0625,9.95990625 13.8525938,9.75 13.59375,9.75 C13.3349062,9.75 13.125,9.95990625 13.125,10.21875 L13.125,14.15625 C13.125,15.1384219 12.3259219,15.9375 11.34375,15.9375 L2.71875,15.9375 C1.73657812,15.9375 0.9375,15.1384219 0.9375,14.15625 L0.9375,2.71875 C0.9375,1.73657812 1.73657812,0.9375 2.71875,0.9375 L11.34375,0.9375 C12.3259219,0.9375 13.125,1.73657812 13.125,2.71875 L13.125,6.73715625 C13.125,6.996 13.3349062,7.20590625 13.59375,7.20590625 C13.8525938,7.20590625 14.0625,6.996 14.0625,6.73715625 L14.0625,2.71875 C14.0625,1.21964062 12.8428594,0 11.34375,0 Z" id="Shape" fill="#000000"></path>
            <path d="M13.59375,8.11260937 C13.4704688,8.11260937 13.3495313,8.16276562 13.2623437,8.25 C13.1751563,8.33714062 13.125,8.45807813 13.125,8.58135937 C13.125,8.7046875 13.1751094,8.825625 13.2623437,8.91276562 C13.3495313,8.99995313 13.4704688,9.05010937 13.59375,9.05010937 C13.7175,9.05010937 13.8379687,9 13.9251094,8.91276562 C14.0122969,8.825625 14.0625,8.7046875 14.0625,8.58135937 C14.0625,8.45807813 14.0123437,8.33714062 13.9251094,8.25 C13.8379687,8.1628125 13.7170312,8.11260937 13.59375,8.11260937 Z" id="Shape" fill="#000000"></path>
            <path d="M10.794375,8.14340625 L11.34375,8.14340625 C11.6025937,8.14340625 11.8125,7.9335 11.8125,7.67465625 L11.8125,3.877125 C11.8125,3.135 11.20875,2.53125 10.466625,2.53125 L3.595875,2.53125 C2.85375,2.53125 2.25,3.135 2.25,3.877125 L2.25,7.67465625 C2.25,7.9335 2.45990625,8.14340625 2.71875,8.14340625 L3.25251563,8.14340625 C3.44601562,8.68898438 3.96707813,9.08090625 4.57814062,9.08090625 C5.18920313,9.08090625 5.71026563,8.68898438 5.90376563,8.14340625 L8.143125,8.14340625 C8.336625,8.68898438 8.8576875,9.08090625 9.46875,9.08090625 C10.0798125,9.08090625 10.600875,8.68898438 10.794375,8.14340625 Z M10.794375,7.20590625 C10.600875,6.66032812 10.0798125,6.26840625 9.46875,6.26840625 C8.8576875,6.26840625 8.336625,6.66032812 8.143125,7.20590625 L5.90376563,7.20590625 C5.71026563,6.66032812 5.18920313,6.26840625 4.57814063,6.26840625 C3.96707813,6.26840625 3.44601563,6.66032812 3.25251563,7.20590625 L3.1875,7.20590625 L3.1875,5.80607812 L10.875,5.80607812 L10.875,7.20590625 L10.794375,7.20590625 Z M6.17578125,4.86853125 L6.17578125,3.46875 L7.88671875,3.46875 L7.88671875,4.86853125 L6.17578125,4.86853125 Z M10.875,3.877125 L10.875,4.86853125 L8.82421875,4.86853125 L8.82421875,3.46875 L10.466625,3.46875 C10.6918125,3.46875 10.875,3.6519375 10.875,3.877125 Z M3.595875,3.46875 L5.23828125,3.46875 L5.23828125,4.86853125 L3.1875,4.86853125 L3.1875,3.877125 C3.1875,3.6519375 3.3706875,3.46875 3.595875,3.46875 Z M4.57814062,8.14340625 C4.31967187,8.14340625 4.10939062,7.933125 4.10939062,7.67465625 C4.10939062,7.4161875 4.31967187,7.20590625 4.57814062,7.20590625 C4.81879687,7.20590625 5.0175,7.38834375 5.04375,7.62210937 C5.04178125,7.63935937 5.04060937,7.65689062 5.04060937,7.67465625 C5.04060937,7.69242188 5.04178125,7.70995312 5.04375,7.72720313 C5.0175,7.96096875 4.81879687,8.14340625 4.57814062,8.14340625 Z M9,7.67465625 C9,7.4161875 9.21028125,7.20590625 9.46875,7.20590625 C9.72721875,7.20590625 9.9375,7.4161875 9.9375,7.67465625 C9.9375,7.933125 9.72721875,8.14340625 9.46875,8.14340625 C9.21028125,8.14340625 9,7.93307812 9,7.67465625 Z" id="Shape" fill="#000000"></path>
            <path d="M3.86029688,10.3087969 L2.71875,10.3087969 C2.45990625,10.3087969 2.25,10.5187031 2.25,10.7775469 L2.25,12.4650469 L2.25,14.1525469 C2.25,14.4113906 2.45990625,14.6212969 2.71875,14.6212969 L3.86029688,14.6212969 C4.584,14.6212969 5.17279687,14.0325 5.17279687,13.3087969 C5.17279687,12.98775 5.05673437,12.693375 4.86459375,12.4650469 C5.05673437,12.2367188 5.17279687,11.9423437 5.17279687,11.6212969 C5.17279687,10.8975469 4.584,10.3087969 3.86029688,10.3087969 Z M3.1875,11.2462969 L3.86029687,11.2462969 C4.0670625,11.2462969 4.23529687,11.4145312 4.23529687,11.6212969 C4.23529687,11.8280625 4.0670625,11.9962969 3.86029687,11.9962969 L3.1875,11.9962969 L3.1875,11.2462969 Z M3.86029687,13.6837969 L3.1875,13.6837969 L3.1875,12.9337969 L3.86029687,12.9337969 C4.0670625,12.9337969 4.23529687,13.1020312 4.23529687,13.3087969 C4.23529687,13.5155625 4.0670625,13.6837969 3.86029687,13.6837969 Z" id="Shape" fill="#000000"></path>
            <path d="M6.1453125,10.3087969 C5.88646875,10.3087969 5.6765625,10.5187031 5.6765625,10.7775469 L5.6765625,13.2150469 C5.6765625,13.9904531 6.30740625,14.6212969 7.0828125,14.6212969 C7.85821875,14.6212969 8.4890625,13.9904531 8.4890625,13.2150469 L8.4890625,10.7775469 C8.4890625,10.5187031 8.27915625,10.3087969 8.0203125,10.3087969 C7.76146875,10.3087969 7.5515625,10.5187031 7.5515625,10.7775469 L7.5515625,13.2150469 C7.5515625,13.4735156 7.34128125,13.6837969 7.0828125,13.6837969 C6.82434375,13.6837969 6.6140625,13.4735156 6.6140625,13.2150469 L6.6140625,10.7775469 C6.6140625,10.5186563 6.40415625,10.3087969 6.1453125,10.3087969 Z" id="Shape" fill="#000000"></path>
            <path d="M10.5551719,13.6837969 L9.77470313,13.6837969 C9.51585938,13.6837969 9.30595313,13.8937031 9.30595313,14.1525469 C9.30595313,14.4113906 9.51585938,14.6212969 9.77470313,14.6212969 L10.5551719,14.6212969 C11.278875,14.6212969 11.8676719,14.0325 11.8676719,13.3087969 C11.8676719,12.5850937 11.278875,11.9962969 10.5551719,11.9962969 L10.2573281,11.9962969 C10.0505625,11.9962969 9.88232813,11.8280625 9.88232813,11.6212969 C9.88232813,11.4145312 10.0505625,11.2462969 10.2573281,11.2462969 L10.8504375,11.2462969 C11.1092813,11.2462969 11.3191875,11.0363906 11.3191875,10.7775469 C11.3191875,10.5187031 11.1092813,10.3087969 10.8504375,10.3087969 L10.2573281,10.3087969 C9.533625,10.3087969 8.94482813,10.8975938 8.94482813,11.6212969 C8.94482813,12.345 9.533625,12.9337969 10.2573281,12.9337969 L10.5551719,12.9337969 C10.7619375,12.9337969 10.9301719,13.1020312 10.9301719,13.3087969 C10.9301719,13.5155625 10.7619375,13.6837969 10.5551719,13.6837969 Z" id="Shape" fill="#000000"></path>
        </g>
    </g>
</svg>