<?xml version="1.0" encoding="UTF-8"?>
<svg width="16px" height="16px" viewBox="0 0 16 16" version="1.1" xmlns="http://www.w3.org/2000/svg" xmlns:xlink="http://www.w3.org/1999/xlink">
    <!-- Generator: Sketch 52.2 (67145) - http://www.bohemiancoding.com/sketch -->
    <title>user</title>
    <desc>Created with Sketch.</desc>
    <g id="Symbols" stroke="none" stroke-width="1" fill="none" fill-rule="evenodd">
        <g id="Icon/Profile/White" transform="translate(-4.000000, -4.000000)" fill="#FFFFFF" fill-rule="nonzero">
            <g id="user" transform="translate(4.000000, 4.000000)">
                <path d="M13.656875,10.343125 C12.7855313,9.4718125 11.7484062,8.82678125 10.6168437,8.4363125 C11.8287813,7.60159375 12.625,6.204625 12.625,4.625 C12.625,2.07478125 10.5502188,0 8,0 C5.44978125,0 3.375,2.07478125 3.375,4.625 C3.375,6.204625 4.17121875,7.60159375 5.3831875,8.4363125 C4.251625,8.82678125 3.2145,9.4718125 2.34315625,10.343125 C0.83215625,11.8541563 0,13.863125 0,16 L1.25,16 C1.25,12.2780312 4.27803125,9.25 8,9.25 C11.7219688,9.25 14.75,12.2780312 14.75,16 L16,16 C16,13.863125 15.1678437,11.8541563 13.656875,10.343125 Z M8,8 C6.13903125,8 4.625,6.486 4.625,4.625 C4.625,2.764 6.13903125,1.25 8,1.25 C9.86096875,1.25 11.375,2.764 11.375,4.625 C11.375,6.486 9.86096875,8 8,8 Z" id="Shape"></path>
            </g>
        </g>
    </g>
</svg>