<?xml version="1.0" encoding="UTF-8"?>
<svg width="13px" height="16px" viewBox="0 0 13 16" version="1.1" xmlns="http://www.w3.org/2000/svg" xmlns:xlink="http://www.w3.org/1999/xlink">
    <!-- Generator: Sketch 52.3 (67297) - http://www.bohemiancoding.com/sketch -->
    <title>copy</title>
    <desc>Created with Sketch.</desc>
    <g id="Assets" stroke="none" stroke-width="1" fill="none" fill-rule="evenodd">
        <g id="Icons" transform="translate(-242.000000, -66.000000)" fill="#000000">
            <g id="copy" transform="translate(242.000000, 66.000000)">
                <path d="M8.71165644,2.79427403 L1.28425358,2.79427403 C0.587321063,2.79427403 0.0212678937,3.3603272 0.0212678937,4.05725971 L0.0212678937,14.7141104 C0.0212678937,15.4110429 0.587321063,15.9770961 1.28425358,15.9770961 L8.71165644,15.9770961 C9.40858896,15.9770961 9.97464213,15.4110429 9.97464213,14.7141104 L9.97464213,4.05725971 C9.97137014,3.3603272 9.40531697,2.79427403 8.71165644,2.79427403 Z M9.08793456,14.7108384 C9.08793456,14.9202454 8.91779141,15.0903885 8.70838446,15.0903885 L1.2809816,15.0903885 C1.07157464,15.0903885 0.901431493,14.9202454 0.901431493,14.7108384 L0.901431493,4.05725971 C0.901431493,3.84785276 1.07157464,3.67770961 1.2809816,3.67770961 L8.70838446,3.67770961 C8.91779141,3.67770961 9.08793456,3.84785276 9.08793456,4.05725971 L9.08793456,14.7108384 Z" id="Shape" fill-rule="nonzero"></path>
                <path d="M11.5517382,0 L4.12433538,0 C3.42740286,0 2.86134969,0.56605317 2.86134969,1.26298569 C2.86134969,1.50838446 3.05766871,1.70470348 3.30306748,1.70470348 C3.54846626,1.70470348 3.74478528,1.50838446 3.74478528,1.26298569 C3.74478528,1.05357873 3.91492843,0.883435583 4.12433538,0.883435583 L11.5517382,0.883435583 C11.7611452,0.883435583 11.9312883,1.05357873 11.9312883,1.26298569 L11.9312883,11.9198364 C11.9312883,12.1292434 11.7611452,12.2993865 11.5517382,12.2993865 C11.3063395,12.2993865 11.1100204,12.4957055 11.1100204,12.7411043 C11.1100204,12.9865031 11.3063395,13.1828221 11.5517382,13.1828221 C12.2486708,13.1828221 12.8147239,12.6167689 12.8147239,11.9198364 L12.8147239,1.26298569 C12.8147239,0.56605317 12.2486708,0 11.5517382,0 Z" id="Path"></path>
            </g>
        </g>
    </g>
</svg>