<?xml version="1.0" encoding="UTF-8"?>
<svg width="15px" height="16px" viewBox="0 0 15 16" version="1.1" xmlns="http://www.w3.org/2000/svg" xmlns:xlink="http://www.w3.org/1999/xlink">
    <!-- Generator: Sketch 52.3 (67297) - http://www.bohemiancoding.com/sketch -->
    <title>garbage</title>
    <desc>Created with Sketch.</desc>
    <g id="Assets" stroke="none" stroke-width="1" fill="none" fill-rule="evenodd">
        <g id="Icons" transform="translate(-210.000000, -66.000000)" fill="#000000">
            <g id="garbage" transform="translate(210.000000, 66.000000)">
                <path d="M13.798768,2.29979466 L10.473922,2.29979466 L10.473922,1.75770021 C10.473922,0.788501027 9.68542094,0 8.71622177,0 L5.55564682,0 C4.58644764,0 3.79794661,0.788501027 3.79794661,1.75770021 L3.79794661,2.29979466 L0.473100616,2.29979466 C0.226694045,2.29979466 0.0295687885,2.49691992 0.0295687885,2.74332649 C0.0295687885,2.98973306 0.226694045,3.18685832 0.473100616,3.18685832 L1.27474333,3.18685832 L1.27474333,13.6082136 C1.27474333,14.9158111 2.33921971,15.9802875 3.64681725,15.9802875 L10.6250513,15.9802875 C11.9326489,15.9802875 12.9971253,14.9158111 12.9971253,13.6082136 L12.9971253,3.18685832 L13.798768,3.18685832 C14.0451745,3.18685832 14.2422998,2.98973306 14.2422998,2.74332649 C14.2422998,2.49691992 14.0451745,2.29979466 13.798768,2.29979466 Z M4.68501027,1.75770021 C4.68501027,1.27802875 5.07597536,0.887063655 5.55564682,0.887063655 L8.71622177,0.887063655 C9.19589322,0.887063655 9.58685832,1.27802875 9.58685832,1.75770021 L9.58685832,2.29979466 L4.68501027,2.29979466 L4.68501027,1.75770021 Z M12.1100616,13.6082136 C12.1100616,14.4262834 11.4431211,15.0932238 10.6250513,15.0932238 L3.64681725,15.0932238 C2.82874743,15.0932238 2.16180698,14.4262834 2.16180698,13.6082136 L2.16180698,3.18685832 L12.113347,3.18685832 L12.113347,13.6082136 L12.1100616,13.6082136 Z" id="Shape" fill-rule="nonzero"></path>
                <path d="M7.13593429,13.5030801 C7.38234086,13.5030801 7.57946612,13.3059548 7.57946612,13.0595483 L7.57946612,5.22053388 C7.57946612,4.97412731 7.38234086,4.77700205 7.13593429,4.77700205 C6.88952772,4.77700205 6.69240246,4.97412731 6.69240246,5.22053388 L6.69240246,13.0562628 C6.69240246,13.3026694 6.88952772,13.5030801 7.13593429,13.5030801 Z" id="Path"></path>
                <path d="M4.24147844,13.0135524 C4.48788501,13.0135524 4.68501027,12.8164271 4.68501027,12.5700205 L4.68501027,5.70677618 C4.68501027,5.46036961 4.48788501,5.26324435 4.24147844,5.26324435 C3.99507187,5.26324435 3.79794661,5.46036961 3.79794661,5.70677618 L3.79794661,12.5700205 C3.79794661,12.8164271 3.99835729,13.0135524 4.24147844,13.0135524 Z" id="Path"></path>
                <path d="M10.0303901,13.0135524 C10.2767967,13.0135524 10.473922,12.8164271 10.473922,12.5700205 L10.473922,5.70677618 C10.473922,5.46036961 10.2767967,5.26324435 10.0303901,5.26324435 C9.78398357,5.26324435 9.58685832,5.46036961 9.58685832,5.70677618 L9.58685832,12.5700205 C9.58685832,12.8164271 9.78398357,13.0135524 10.0303901,13.0135524 Z" id="Path"></path>
            </g>
        </g>
    </g>
</svg>